<?xml version="1.0" encoding="UTF-8" standalone="no"?> <svg xmlns="http://www.w3.org/2000/svg" viewBox="0 0 48 48"><title>Rocking Chair</title><g id="Rocking_Chair" data-name="Rocking Chair"><path d="M42.907,40.549l-.589-1.9a1.954,1.954,0,0,0-.977-1.173,1.868,1.868,0,0,0-1.456-.106c-.759.257-1.525.489-2.295.708L36.11,24H37a2,2,0,0,0,2-2V20a2,2,0,0,0-2-2H15.517A51.771,51.771,0,0,0,11.444,3.136a1.981,1.981,0,0,0-1.272-1.065,2,2,0,0,0-1.647.269l-1.411.941a1.979,1.979,0,0,0-.76,2.365C6.969,7.272,12.176,21.7,9.981,37.958q-.939-.276-1.867-.589a1.856,1.856,0,0,0-1.455.106,1.953,1.953,0,0,0-.977,1.174l-.589,1.9a2.025,2.025,0,0,0,1.234,2.52A54.833,54.833,0,0,0,24,46a54.833,54.833,0,0,0,17.673-2.931A2.025,2.025,0,0,0,42.907,40.549ZM35.634,38.59q-.559.135-1.122.254L32.17,24H34.1ZM16.46,31H31.25l.316,2h-15.1C16.47,32.36,16.469,31.7,16.46,31Zm13.686-7,.789,5H27V24ZM25,29H23V24h2Zm-4,0H16.417c-.047-1.584-.129-3.262-.26-5H21Zm-4.561,6H31.882l.667,4.227a50.031,50.031,0,0,1-16.322.131C16.309,38.386,16.4,36.884,16.439,35ZM37,20v2H15.986c-.063-.663-.13-1.329-.209-2ZM8.225,4.944,9.639,4c5.68,11.818,4.893,30.4,4.585,35-.769-.154-1.536-.323-2.3-.514C14.277,21.636,8.862,6.622,8.225,4.944ZM7,41.141,7.575,39.3a51.817,51.817,0,0,0,32.851,0l.6,1.878A52.416,52.416,0,0,1,7,41.141Z"/></g></svg>