<svg width="11" height="12" viewBox="0 0 11 12" fill="none" xmlns="http://www.w3.org/2000/svg">
<path d="M6.444 8.344L4.548 8.32C4.54 8.208 4.532 8.068 4.524 7.9C4.524 7.724 4.524 7.552 4.524 7.384C4.524 6.904 4.576 6.504 4.68 6.184C4.784 5.864 4.984 5.6 5.28 5.392C5.584 5.176 6.036 4.992 6.636 4.84C6.98 4.752 7.264 4.676 7.488 4.612C7.712 4.54 7.888 4.46 8.016 4.372C8.144 4.284 8.232 4.164 8.28 4.012C8.336 3.852 8.364 3.636 8.364 3.364C8.364 2.788 8.136 2.44 7.68 2.32C7.456 2.256 7.16 2.208 6.792 2.176C6.424 2.144 6.064 2.128 5.712 2.128C5.416 2.128 5.1 2.14 4.764 2.164C4.428 2.18 4.112 2.216 3.816 2.272C3.52 2.328 3.28 2.416 3.096 2.536C2.912 2.656 2.82 2.82 2.82 3.028C2.82 3.212 2.88 3.412 3 3.628C3.128 3.836 3.284 4.02 3.468 4.18L1.728 5.176C1.456 4.896 1.236 4.56 1.068 4.168C0.9 3.776 0.816 3.36 0.816 2.92C0.816 2.632 0.876 2.336 0.996 2.032C1.124 1.728 1.332 1.448 1.62 1.192C1.916 0.928 2.316 0.724 2.82 0.58C3.188 0.468 3.624 0.384 4.128 0.327999C4.632 0.264 5.16 0.232 5.712 0.232C6.184 0.232 6.66 0.26 7.14 0.316C7.62 0.372 8.068 0.472 8.484 0.615999C9.18 0.855999 9.652 1.208 9.9 1.672C10.156 2.128 10.284 2.668 10.284 3.292C10.284 4.116 10.112 4.788 9.768 5.308C9.432 5.828 8.856 6.18 8.04 6.364C7.848 6.404 7.644 6.44 7.428 6.472C7.212 6.504 7.02 6.556 6.852 6.628C6.684 6.7 6.572 6.824 6.516 7C6.452 7.2 6.42 7.488 6.42 7.864C6.42 7.944 6.42 8.024 6.42 8.104C6.428 8.184 6.436 8.264 6.444 8.344ZM5.508 11.092C5.148 11.092 4.868 10.98 4.668 10.756C4.476 10.532 4.38 10.268 4.38 9.964C4.38 9.636 4.488 9.364 4.704 9.148C4.92 8.924 5.192 8.812 5.52 8.812C5.864 8.812 6.136 8.916 6.336 9.124C6.544 9.332 6.648 9.608 6.648 9.952C6.648 10.296 6.544 10.572 6.336 10.78C6.136 10.988 5.86 11.092 5.508 11.092Z" fill="#01DB42"/>
</svg>
