<?xml version="1.0" standalone="no"?>
<svg xmlns:xlink="http://www.w3.org/1999/xlink" id="wave" style="transform:rotate(0deg); transition: 0.3s" viewBox="0 0 1440 140" version="1.1" xmlns="http://www.w3.org/2000/svg"><defs><linearGradient id="sw-gradient-0" x1="0" x2="0" y1="1" y2="0"><stop stop-color="rgba(1, 219, 66, 1)" offset="0%"/><stop stop-color="rgba(1, 219, 66, 1)" offset="100%"/></linearGradient></defs><path style="transform:translate(0, 0px); opacity:1" fill="url(#sw-gradient-0)" d="M0,126L80,114.3C160,103,320,79,480,79.3C640,79,800,103,960,114.3C1120,126,1280,126,1440,119C1600,112,1760,98,1920,98C2080,98,2240,112,2400,112C2560,112,2720,98,2880,98C3040,98,3200,112,3360,98C3520,84,3680,42,3840,35C4000,28,4160,56,4320,56C4480,56,4640,28,4800,32.7C4960,37,5120,75,5280,95.7C5440,117,5600,121,5760,116.7C5920,112,6080,98,6240,84C6400,70,6560,56,6720,49C6880,42,7040,42,7200,35C7360,28,7520,14,7680,11.7C7840,9,8000,19,8160,39.7C8320,61,8480,93,8640,91C8800,89,8960,51,9120,44.3C9280,37,9440,61,9600,74.7C9760,89,9920,93,10080,93.3C10240,93,10400,89,10560,91C10720,93,10880,103,11040,100.3C11200,98,11360,84,11440,77L11520,70L11520,140L11440,140C11360,140,11200,140,11040,140C10880,140,10720,140,10560,140C10400,140,10240,140,10080,140C9920,140,9760,140,9600,140C9440,140,9280,140,9120,140C8960,140,8800,140,8640,140C8480,140,8320,140,8160,140C8000,140,7840,140,7680,140C7520,140,7360,140,7200,140C7040,140,6880,140,6720,140C6560,140,6400,140,6240,140C6080,140,5920,140,5760,140C5600,140,5440,140,5280,140C5120,140,4960,140,4800,140C4640,140,4480,140,4320,140C4160,140,4000,140,3840,140C3680,140,3520,140,3360,140C3200,140,3040,140,2880,140C2720,140,2560,140,2400,140C2240,140,2080,140,1920,140C1760,140,1600,140,1440,140C1280,140,1120,140,960,140C800,140,640,140,480,140C320,140,160,140,80,140L0,140Z"/></svg>