<svg width="589" height="316" viewBox="0 0 589 316" fill="none" xmlns="http://www.w3.org/2000/svg">
<path d="M123.793 153.4C115.993 153.4 109.127 151.567 103.193 147.9C97.26 144.233 92.6267 139.1 89.2934 132.5C86.0267 125.9 84.3934 118.233 84.3934 109.5C84.3934 103.1 85.3934 97.2 87.3934 91.8C89.3934 86.4 92.1934 81.7 95.7934 77.7C99.3934 73.6333 103.627 70.5 108.493 68.3C113.427 66.1 118.76 65 124.493 65C137.36 65 147.26 68.9667 154.193 76.9C161.193 84.7667 164.693 95.9667 164.693 110.5C164.693 120.633 162.56 129.167 158.293 136.1C161.227 138.033 164.06 139.5 166.793 140.5L156.493 153.8C153.027 152.133 149.627 150.167 146.293 147.9C140.027 151.567 132.527 153.4 123.793 153.4ZM123.793 136.8C125.193 136.8 126.66 136.733 128.193 136.6C129.727 136.467 131.26 136.233 132.793 135.9C130.127 132.9 127.66 129.8 125.393 126.6C123.193 123.333 121.227 120.033 119.493 116.7L134.993 110C135.793 112.267 137.093 114.733 138.893 117.4C140.76 120.067 142.927 122.7 145.393 125.3C146.26 123.367 146.927 121.1 147.393 118.5C147.927 115.9 148.193 112.9 148.193 109.5C148.193 100.433 146.16 93.5667 142.093 88.9C138.027 84.1667 132.127 81.8 124.393 81.8C116.927 81.8 111.127 84.3667 106.993 89.5C102.86 94.6333 100.793 101.967 100.793 111.5C100.793 115.967 101.493 119.8 102.893 123C104.36 126.2 106.26 128.833 108.593 130.9C110.927 132.9 113.427 134.4 116.093 135.4C118.76 136.333 121.327 136.8 123.793 136.8ZM198.209 154.2C193.942 154.2 190.409 153.433 187.609 151.9C184.876 150.433 182.676 148.4 181.009 145.8C179.409 143.2 178.209 140.3 177.409 137.1C176.676 133.833 176.176 130.467 175.909 127C175.709 123.467 175.609 120.067 175.609 116.8C175.609 113.067 175.709 109.267 175.909 105.4C176.176 101.533 176.442 97.3 176.709 92.7L195.009 91.6C194.809 93 194.509 95.1 194.109 97.9C193.709 100.7 193.342 103.9 193.009 107.5C192.676 111.1 192.509 114.867 192.509 118.8C192.509 125.267 193.076 130.067 194.209 133.2C195.342 136.267 197.042 137.8 199.309 137.8C203.842 137.8 207.176 134.5 209.309 127.9C211.442 121.3 212.509 110.867 212.509 96.6V92L221.009 91.8L231.309 91.6C230.376 97.8667 229.676 103.633 229.209 108.9C228.742 114.167 228.442 118.6 228.309 122.2C228.176 125.733 228.109 128.1 228.109 129.3C228.109 132.367 228.376 134.567 228.909 135.9C229.442 137.167 230.376 137.8 231.709 137.8C232.376 137.8 233.109 137.667 233.909 137.4C234.709 137.133 235.642 136.667 236.709 136L236.009 153.2C233.476 153.6 231.276 153.8 229.409 153.8C226.209 153.8 223.576 153.2 221.509 152C219.509 150.8 217.909 149.2 216.709 147.2C214.642 149.4 212.076 151.1 209.009 152.3C206.009 153.567 202.409 154.2 198.209 154.2ZM270.054 153.9C265.054 153.9 260.521 152.6 256.454 150C252.388 147.467 249.154 144.033 246.754 139.7C244.421 135.3 243.254 130.4 243.254 125C243.254 119.933 244.188 115.367 246.054 111.3C247.921 107.167 250.454 103.633 253.654 100.7C256.921 97.7667 260.621 95.5333 264.754 94C268.888 92.4 273.221 91.6 277.754 91.6C281.554 91.6 285.288 92.1333 288.954 93.2C289.221 91.8 289.454 90.4 289.654 89L306.754 91.9C306.288 93.1667 305.821 95.0667 305.354 97.6C304.888 100.133 304.488 102.967 304.154 106.1C303.888 109.233 303.654 112.367 303.454 115.5C303.254 118.633 303.154 121.467 303.154 124C303.154 126.067 303.288 128.1 303.554 130.1C303.888 132.033 304.554 133.633 305.554 134.9C306.554 136.1 308.088 136.7 310.154 136.7H311.554L309.054 154.1C304.654 154.1 301.021 153.333 298.154 151.8C295.288 150.333 292.988 148.333 291.254 145.8C288.388 149 285.121 151.133 281.454 152.2C277.788 153.333 273.988 153.9 270.054 153.9ZM259.654 127C259.988 130.2 261.288 132.767 263.554 134.7C265.888 136.567 268.821 137.5 272.354 137.5C275.754 137.5 278.588 136.6 280.854 134.8C283.121 132.933 284.988 130.4 286.454 127.2C286.388 126.133 286.354 125.033 286.354 123.9C286.354 121.567 286.421 119.167 286.554 116.7C286.688 114.233 286.854 111.8 287.054 109.4C284.254 108.333 281.321 107.8 278.254 107.8C274.654 107.8 271.421 108.533 268.554 110C265.754 111.4 263.554 113.367 261.954 115.9C260.354 118.433 259.554 121.367 259.554 124.7C259.554 125.1 259.554 125.5 259.554 125.9C259.554 126.3 259.588 126.667 259.654 127ZM318.606 153.2C318.406 147.333 318.239 141.9 318.106 136.9C318.039 131.9 318.006 126.967 318.006 122.1C318.006 117.233 318.039 112.367 318.106 107.5C318.239 102.567 318.439 97.3 318.706 91.7H335.606C335.339 94.7 335.106 97.7333 334.906 100.8C337.173 97.9333 339.873 95.5667 343.006 93.7C346.139 91.7667 349.839 90.8 354.106 90.8C358.306 90.8 361.739 91.5 364.406 92.9C367.139 94.3 369.273 96.2333 370.806 98.7C372.406 101.167 373.539 104 374.206 107.2C374.939 110.333 375.406 113.733 375.606 117.4C375.806 121 375.906 124.633 375.906 128.3C375.906 132.3 375.839 136.133 375.706 139.8C375.573 143.467 375.439 146.533 375.306 149C375.173 151.467 375.073 152.933 375.006 153.4H358.206C358.339 150.667 358.473 147.767 358.606 144.7C358.739 141.567 358.873 138.5 359.006 135.5C359.139 132.433 359.206 129.667 359.206 127.2C359.206 113 356.906 105.9 352.306 105.9C348.506 105.9 345.039 107.567 341.906 110.9C338.839 114.167 336.273 118.3 334.206 123.3C334.206 123.967 334.206 124.633 334.206 125.3C334.206 128.5 334.206 131.833 334.206 135.3C334.273 138.7 334.339 141.967 334.406 145.1C334.539 148.167 334.639 150.833 334.706 153.1L318.606 153.2ZM415.677 153.9C411.677 153.9 408.51 153.033 406.177 151.3C403.844 149.633 402.144 147.3 401.077 144.3C400.01 141.3 399.31 137.867 398.977 134C398.71 130.133 398.577 126.067 398.577 121.8C398.577 117.4 398.744 112.833 399.077 108.1C394.61 108.7 390.31 109.467 386.177 110.4L383.077 94.7C388.61 93.2333 394.51 92.1667 400.777 91.5C401.244 88.1 401.744 84.5333 402.277 80.8C402.81 77 403.41 73 404.077 68.8L421.277 70.3C420.477 73.7667 419.777 77.2333 419.177 80.7C418.577 84.1 418.044 87.4 417.577 90.6C421.31 90.6 424.81 90.7 428.077 90.9C431.41 91.0333 434.477 91.3 437.277 91.7L435.277 107.4C432.944 107.133 430.51 106.967 427.977 106.9C425.51 106.767 423.01 106.7 420.477 106.7C418.944 106.7 417.41 106.733 415.877 106.8C415.477 111.667 415.21 115.833 415.077 119.3C415.01 122.767 414.977 125.233 414.977 126.7C414.977 130.367 415.177 133 415.577 134.6C416.044 136.2 416.777 137 417.777 137C418.91 137 420.177 136.633 421.577 135.9C422.977 135.1 424.344 134.033 425.677 132.7C427.077 131.367 428.244 129.933 429.177 128.4L436.877 144.5C430.277 150.767 423.21 153.9 415.677 153.9ZM474.068 154.2C468.735 154.2 464.068 153.333 460.068 151.6C456.135 149.867 452.868 147.5 450.268 144.5C447.668 141.433 445.735 137.933 444.468 134C443.202 130.067 442.568 125.933 442.568 121.6C442.568 117.2 443.335 113.133 444.868 109.4C446.468 105.6 448.635 102.3 451.368 99.5C454.168 96.7 457.435 94.5333 461.168 93C464.902 91.4 468.968 90.6 473.368 90.6C477.968 90.6 482.235 91.4 486.168 93C490.102 94.6 493.535 96.8333 496.468 99.7C499.402 102.567 501.668 105.933 503.268 109.8C504.935 113.667 505.768 117.867 505.768 122.4C505.768 132.467 503.002 140.3 497.468 145.9C491.935 151.433 484.135 154.2 474.068 154.2ZM473.968 138C478.835 138 482.535 136.633 485.068 133.9C487.668 131.167 488.968 127.233 488.968 122.1C488.968 117.5 487.568 113.8 484.768 111C481.968 108.2 478.302 106.8 473.768 106.8C471.035 106.8 468.535 107.533 466.268 109C464.002 110.4 462.168 112.3 460.768 114.7C459.435 117.033 458.768 119.633 458.768 122.5C458.768 125.033 459.268 127.5 460.268 129.9C461.335 132.3 463.002 134.267 465.268 135.8C467.535 137.267 470.435 138 473.968 138ZM105.571 261.7C98.6374 261.7 92.804 260.467 88.0707 258C83.3374 255.6 79.5374 252.4 76.6707 248.4C73.8707 244.4 71.8374 240.033 70.5707 235.3C69.304 230.567 68.6707 225.867 68.6707 221.2C68.6707 215.667 69.5707 210.2 71.3707 204.8C73.1707 199.4 75.8707 194.5 79.4707 190.1C83.1374 185.7 87.6707 182.167 93.0707 179.5C98.5374 176.833 104.904 175.5 112.171 175.5C118.304 175.5 123.671 176.4 128.271 178.2C132.871 179.933 136.804 182.067 140.071 184.6C143.404 187.067 146.071 189.4 148.071 191.6L135.571 205.1C133.704 202.9 131.704 200.833 129.571 198.9C127.504 196.967 125.037 195.4 122.171 194.2C119.304 193 115.771 192.4 111.571 192.4C107.037 192.4 103.137 193.233 99.8707 194.9C96.604 196.5 93.9374 198.667 91.8707 201.4C89.804 204.133 88.2707 207.2 87.2707 210.6C86.3374 214 85.8707 217.5 85.8707 221.1C85.8707 225.367 86.5707 229.3 87.9707 232.9C89.4374 236.5 91.604 239.4 94.4707 241.6C97.404 243.8 101.037 244.9 105.371 244.9C110.704 244.9 115.104 243.667 118.571 241.2C122.037 238.733 124.437 235.2 125.771 230.6C122.904 230.8 120.137 231.067 117.471 231.4C114.871 231.667 112.537 231.967 110.471 232.3L108.771 216.1C112.704 215.233 117.237 214.6 122.371 214.2C127.571 213.733 132.537 213.5 137.271 213.5C143.804 213.5 148.704 213.9 151.971 214.7L151.571 231.1C150.171 230.7 147.937 230.4 144.871 230.2C144.871 231.667 144.871 233.2 144.871 234.8C144.937 236.4 144.971 238.033 144.971 239.7C144.971 244.3 144.904 248.833 144.771 253.3C144.637 257.767 144.504 261.333 144.371 264L127.271 263.6C127.337 262.733 127.437 261.4 127.571 259.6C127.771 257.8 127.971 255.767 128.171 253.5C125.904 255.9 122.937 257.867 119.271 259.4C115.671 260.933 111.104 261.7 105.571 261.7ZM186.265 264.9C181.265 264.9 176.732 263.6 172.665 261C168.599 258.467 165.365 255.033 162.965 250.7C160.632 246.3 159.465 241.4 159.465 236C159.465 230.933 160.399 226.367 162.265 222.3C164.132 218.167 166.665 214.633 169.865 211.7C173.132 208.767 176.832 206.533 180.965 205C185.099 203.4 189.432 202.6 193.965 202.6C197.765 202.6 201.499 203.133 205.165 204.2C205.432 202.8 205.665 201.4 205.865 200L222.965 202.9C222.499 204.167 222.032 206.067 221.565 208.6C221.099 211.133 220.699 213.967 220.365 217.1C220.099 220.233 219.865 223.367 219.665 226.5C219.465 229.633 219.365 232.467 219.365 235C219.365 237.067 219.499 239.1 219.765 241.1C220.099 243.033 220.765 244.633 221.765 245.9C222.765 247.1 224.299 247.7 226.365 247.7H227.765L225.265 265.1C220.865 265.1 217.232 264.333 214.365 262.8C211.499 261.333 209.199 259.333 207.465 256.8C204.599 260 201.332 262.133 197.665 263.2C193.999 264.333 190.199 264.9 186.265 264.9ZM175.865 238C176.199 241.2 177.499 243.767 179.765 245.7C182.099 247.567 185.032 248.5 188.565 248.5C191.965 248.5 194.799 247.6 197.065 245.8C199.332 243.933 201.199 241.4 202.665 238.2C202.599 237.133 202.565 236.033 202.565 234.9C202.565 232.567 202.632 230.167 202.765 227.7C202.899 225.233 203.065 222.8 203.265 220.4C200.465 219.333 197.532 218.8 194.465 218.8C190.865 218.8 187.632 219.533 184.765 221C181.965 222.4 179.765 224.367 178.165 226.9C176.565 229.433 175.765 232.367 175.765 235.7C175.765 236.1 175.765 236.5 175.765 236.9C175.765 237.3 175.799 237.667 175.865 238ZM234.817 264.2C234.617 258.333 234.45 252.9 234.317 247.9C234.25 242.9 234.217 237.967 234.217 233.1C234.217 228.233 234.25 223.367 234.317 218.5C234.45 213.567 234.65 208.3 234.917 202.7H251.817C251.55 205.7 251.317 208.733 251.117 211.8C253.383 208.933 256.083 206.567 259.217 204.7C262.35 202.767 266.05 201.8 270.317 201.8C274.517 201.8 277.95 202.5 280.617 203.9C283.35 205.3 285.483 207.233 287.017 209.7C288.617 212.167 289.75 215 290.417 218.2C291.15 221.333 291.617 224.733 291.817 228.4C292.017 232 292.117 235.633 292.117 239.3C292.117 243.3 292.05 247.133 291.917 250.8C291.783 254.467 291.65 257.533 291.517 260C291.383 262.467 291.283 263.933 291.217 264.4H274.417C274.55 261.667 274.683 258.767 274.817 255.7C274.95 252.567 275.083 249.5 275.217 246.5C275.35 243.433 275.417 240.667 275.417 238.2C275.417 224 273.117 216.9 268.517 216.9C264.717 216.9 261.25 218.567 258.117 221.9C255.05 225.167 252.483 229.3 250.417 234.3C250.417 234.967 250.417 235.633 250.417 236.3C250.417 239.5 250.417 242.833 250.417 246.3C250.483 249.7 250.55 252.967 250.617 256.1C250.75 259.167 250.85 261.833 250.917 264.1L234.817 264.2ZM302.088 263.9C302.088 259.833 302.088 254.633 302.088 248.3C302.155 241.9 302.221 234.8 302.288 227C302.421 219.2 302.588 211 302.788 202.4C303.055 193.8 303.355 185.2 303.688 176.6L320.688 176.5C320.421 180.3 320.155 184.933 319.888 190.4C319.621 195.867 319.388 201.733 319.188 208C323.788 203.733 329.055 201.6 334.988 201.6C339.055 201.6 342.421 202.333 345.088 203.8C347.821 205.267 350.021 207.2 351.688 209.6C353.355 211.933 354.621 214.5 355.488 217.3C356.355 220.1 356.955 222.867 357.288 225.6C357.621 228.267 357.788 230.633 357.788 232.7C357.788 237.1 357.755 241.467 357.688 245.8C357.621 250.133 357.555 253.933 357.488 257.2C357.488 260.467 357.488 262.767 357.488 264.1L339.988 264.2C340.255 261.6 340.421 258.6 340.488 255.2C340.621 251.8 340.688 248.3 340.688 244.7C340.755 241.033 340.788 237.567 340.788 234.3C340.788 223.5 338.255 218.1 333.188 218.1C331.655 218.1 329.955 218.5 328.088 219.3C326.221 220.1 324.421 221.367 322.688 223.1C321.021 224.833 319.688 227.133 318.688 230C318.621 234.4 318.588 238.667 318.588 242.8C318.588 246.6 318.621 250.167 318.688 253.5C318.821 256.767 318.921 260.067 318.988 263.4L302.088 263.9ZM397.311 265.2C391.977 265.2 387.311 264.333 383.311 262.6C379.377 260.867 376.111 258.5 373.511 255.5C370.911 252.433 368.977 248.933 367.711 245C366.444 241.067 365.811 236.933 365.811 232.6C365.811 228.2 366.577 224.133 368.111 220.4C369.711 216.6 371.877 213.3 374.611 210.5C377.411 207.7 380.677 205.533 384.411 204C388.144 202.4 392.211 201.6 396.611 201.6C401.211 201.6 405.477 202.4 409.411 204C413.344 205.6 416.777 207.833 419.711 210.7C422.644 213.567 424.911 216.933 426.511 220.8C428.177 224.667 429.011 228.867 429.011 233.4C429.011 243.467 426.244 251.3 420.711 256.9C415.177 262.433 407.377 265.2 397.311 265.2ZM397.211 249C402.077 249 405.777 247.633 408.311 244.9C410.911 242.167 412.211 238.233 412.211 233.1C412.211 228.5 410.811 224.8 408.011 222C405.211 219.2 401.544 217.8 397.011 217.8C394.277 217.8 391.777 218.533 389.511 220C387.244 221.4 385.411 223.3 384.011 225.7C382.677 228.033 382.011 230.633 382.011 233.5C382.011 236.033 382.511 238.5 383.511 240.9C384.577 243.3 386.244 245.267 388.511 246.8C390.777 248.267 393.677 249 397.211 249ZM485.749 243.2L469.949 243C469.882 242.067 469.815 240.9 469.749 239.5C469.749 238.033 469.749 236.6 469.749 235.2C469.749 231.2 470.182 227.867 471.049 225.2C471.915 222.533 473.582 220.333 476.049 218.6C478.582 216.8 482.349 215.267 487.349 214C490.215 213.267 492.582 212.633 494.449 212.1C496.315 211.5 497.782 210.833 498.849 210.1C499.915 209.367 500.649 208.367 501.049 207.1C501.515 205.767 501.749 203.967 501.749 201.7C501.749 196.9 499.849 194 496.049 193C494.182 192.467 491.715 192.067 488.649 191.8C485.582 191.533 482.582 191.4 479.649 191.4C477.182 191.4 474.549 191.5 471.749 191.7C468.949 191.833 466.315 192.133 463.849 192.6C461.382 193.067 459.382 193.8 457.849 194.8C456.315 195.8 455.549 197.167 455.549 198.9C455.549 200.433 456.049 202.1 457.049 203.9C458.115 205.633 459.415 207.167 460.949 208.5L446.449 216.8C444.182 214.467 442.349 211.667 440.949 208.4C439.549 205.133 438.849 201.667 438.849 198C438.849 195.6 439.349 193.133 440.349 190.6C441.415 188.067 443.149 185.733 445.549 183.6C448.015 181.4 451.349 179.7 455.549 178.5C458.615 177.567 462.249 176.867 466.449 176.4C470.649 175.867 475.049 175.6 479.649 175.6C483.582 175.6 487.549 175.833 491.549 176.3C495.549 176.767 499.282 177.6 502.749 178.8C508.549 180.8 512.482 183.733 514.549 187.6C516.682 191.4 517.749 195.9 517.749 201.1C517.749 207.967 516.315 213.567 513.449 217.9C510.649 222.233 505.849 225.167 499.049 226.7C497.449 227.033 495.749 227.333 493.949 227.6C492.149 227.867 490.549 228.3 489.149 228.9C487.749 229.5 486.815 230.533 486.349 232C485.815 233.667 485.549 236.067 485.549 239.2C485.549 239.867 485.549 240.533 485.549 241.2C485.615 241.867 485.682 242.533 485.749 243.2ZM477.949 266.1C474.949 266.1 472.615 265.167 470.949 263.3C469.349 261.433 468.549 259.233 468.549 256.7C468.549 253.967 469.449 251.7 471.249 249.9C473.049 248.033 475.315 247.1 478.049 247.1C480.915 247.1 483.182 247.967 484.849 249.7C486.582 251.433 487.449 253.733 487.449 256.6C487.449 259.467 486.582 261.767 484.849 263.5C483.182 265.233 480.882 266.1 477.949 266.1Z" fill="white"/>
</svg>
