<svg width="153" height="67" viewBox="0 0 153 67" fill="none" xmlns="http://www.w3.org/2000/svg">
<path d="M18.9597 30.516C16.3077 30.516 13.9731 29.8927 11.9557 28.646C9.93841 27.3993 8.36308 25.654 7.22974 23.41C6.11908 21.166 5.56374 18.5593 5.56374 15.59C5.56374 13.414 5.90374 11.408 6.58374 9.572C7.26374 7.736 8.21574 6.138 9.43974 4.778C10.6637 3.39533 12.1031 2.33 13.7577 1.582C15.4351 0.833998 17.2484 0.459998 19.1977 0.459998C23.5724 0.459998 26.9384 1.80866 29.2957 4.506C31.6757 7.18067 32.8657 10.9887 32.8657 15.93C32.8657 19.3753 32.1404 22.2767 30.6897 24.634C31.6871 25.2913 32.6504 25.79 33.5797 26.13L30.0777 30.652C28.8991 30.0853 27.7431 29.4167 26.6097 28.646C24.4791 29.8927 21.9291 30.516 18.9597 30.516ZM18.9597 24.872C19.4357 24.872 19.9344 24.8493 20.4557 24.804C20.9771 24.7587 21.4984 24.6793 22.0197 24.566C21.1131 23.546 20.2744 22.492 19.5037 21.404C18.7557 20.2933 18.0871 19.1713 17.4977 18.038L22.7677 15.76C23.0397 16.5307 23.4817 17.3693 24.0937 18.276C24.7284 19.1827 25.4651 20.078 26.3037 20.962C26.5984 20.3047 26.8251 19.534 26.9837 18.65C27.1651 17.766 27.2557 16.746 27.2557 15.59C27.2557 12.5073 26.5644 10.1727 25.1817 8.586C23.7991 6.97667 21.7931 6.172 19.1637 6.172C16.6251 6.172 14.6531 7.04467 13.2477 8.79C11.8424 10.5353 11.1397 13.0287 11.1397 16.27C11.1397 17.7887 11.3777 19.092 11.8537 20.18C12.3524 21.268 12.9984 22.1633 13.7917 22.866C14.5851 23.546 15.4351 24.056 16.3417 24.396C17.2484 24.7133 18.1211 24.872 18.9597 24.872ZM44.2611 30.788C42.8104 30.788 41.6091 30.5273 40.6571 30.006C39.7277 29.5073 38.9797 28.816 38.4131 27.932C37.8691 27.048 37.4611 26.062 37.1891 24.974C36.9397 23.8633 36.7697 22.7187 36.6791 21.54C36.6111 20.3387 36.5771 19.1827 36.5771 18.072C36.5771 16.8027 36.6111 15.5107 36.6791 14.196C36.7697 12.8813 36.8604 11.442 36.9511 9.878L43.1731 9.504C43.1051 9.98 43.0031 10.694 42.8671 11.646C42.7311 12.598 42.6064 13.686 42.4931 14.91C42.3797 16.134 42.3231 17.4147 42.3231 18.752C42.3231 20.9507 42.5157 22.5827 42.9011 23.648C43.2864 24.6907 43.8644 25.212 44.6351 25.212C46.1764 25.212 47.3097 24.09 48.0351 21.846C48.7604 19.602 49.1231 16.0547 49.1231 11.204V9.64L52.0131 9.572L55.5151 9.504C55.1977 11.6347 54.9597 13.5953 54.8011 15.386C54.6424 17.1767 54.5404 18.684 54.4951 19.908C54.4497 21.1093 54.4271 21.914 54.4271 22.322C54.4271 23.3647 54.5177 24.1127 54.6991 24.566C54.8804 24.9967 55.1977 25.212 55.6511 25.212C55.8777 25.212 56.1271 25.1667 56.3991 25.076C56.6711 24.9853 56.9884 24.8267 57.3511 24.6L57.1131 30.448C56.2517 30.584 55.5037 30.652 54.8691 30.652C53.7811 30.652 52.8857 30.448 52.1831 30.04C51.5031 29.632 50.9591 29.088 50.5511 28.408C49.8484 29.156 48.9757 29.734 47.9331 30.142C46.9131 30.5727 45.6891 30.788 44.2611 30.788ZM68.6885 30.686C66.9885 30.686 65.4471 30.244 64.0645 29.36C62.6818 28.4987 61.5825 27.3313 60.7665 25.858C59.9731 24.362 59.5765 22.696 59.5765 20.86C59.5765 19.1373 59.8938 17.5847 60.5285 16.202C61.1631 14.7967 62.0245 13.5953 63.1125 12.598C64.2231 11.6007 65.4811 10.8413 66.8865 10.32C68.2918 9.776 69.7651 9.504 71.3065 9.504C72.5985 9.504 73.8678 9.68533 75.1145 10.048C75.2051 9.572 75.2845 9.096 75.3525 8.62L81.1665 9.606C81.0078 10.0367 80.8491 10.6827 80.6905 11.544C80.5318 12.4053 80.3958 13.3687 80.2825 14.434C80.1918 15.4993 80.1125 16.5647 80.0445 17.63C79.9765 18.6953 79.9425 19.6587 79.9425 20.52C79.9425 21.2227 79.9878 21.914 80.0785 22.594C80.1918 23.2513 80.4185 23.7953 80.7585 24.226C81.0985 24.634 81.6198 24.838 82.3225 24.838H82.7985L81.9485 30.754C80.4525 30.754 79.2171 30.4933 78.2425 29.972C77.2678 29.4733 76.4858 28.7933 75.8965 27.932C74.9218 29.02 73.8111 29.7453 72.5645 30.108C71.3178 30.4933 70.0258 30.686 68.6885 30.686ZM65.1525 21.54C65.2658 22.628 65.7078 23.5007 66.4785 24.158C67.2718 24.7927 68.2691 25.11 69.4705 25.11C70.6265 25.11 71.5898 24.804 72.3605 24.192C73.1311 23.5573 73.7658 22.696 74.2645 21.608C74.2418 21.2453 74.2305 20.8713 74.2305 20.486C74.2305 19.6927 74.2531 18.8767 74.2985 18.038C74.3438 17.1993 74.4005 16.372 74.4685 15.556C73.5165 15.1933 72.5191 15.012 71.4765 15.012C70.2525 15.012 69.1531 15.2613 68.1785 15.76C67.2265 16.236 66.4785 16.9047 65.9345 17.766C65.3905 18.6273 65.1185 19.6247 65.1185 20.758C65.1185 20.894 65.1185 21.03 65.1185 21.166C65.1185 21.302 65.1298 21.4267 65.1525 21.54ZM85.196 30.448C85.128 28.4533 85.0713 26.606 85.026 24.906C85.0033 23.206 84.992 21.5287 84.992 19.874C84.992 18.2193 85.0033 16.5647 85.026 14.91C85.0713 13.2327 85.1393 11.442 85.23 9.538H90.976C90.8853 10.558 90.806 11.5893 90.738 12.632C91.5087 11.6573 92.4267 10.8527 93.492 10.218C94.5573 9.56067 95.8153 9.232 97.266 9.232C98.694 9.232 99.8613 9.47 100.768 9.946C101.697 10.422 102.423 11.0793 102.944 11.918C103.488 12.7567 103.873 13.72 104.1 14.808C104.349 15.8733 104.508 17.0293 104.576 18.276C104.644 19.5 104.678 20.7353 104.678 21.982C104.678 23.342 104.655 24.6453 104.61 25.892C104.565 27.1387 104.519 28.1813 104.474 29.02C104.429 29.8587 104.395 30.3573 104.372 30.516H98.66C98.7053 29.5867 98.7507 28.6007 98.796 27.558C98.8413 26.4927 98.8867 25.45 98.932 24.43C98.9773 23.3873 99 22.4467 99 21.608C99 16.78 98.218 14.366 96.654 14.366C95.362 14.366 94.1833 14.9327 93.118 16.066C92.0753 17.1767 91.2027 18.582 90.5 20.282C90.5 20.5087 90.5 20.7353 90.5 20.962C90.5 22.05 90.5 23.1833 90.5 24.362C90.5227 25.518 90.5453 26.6287 90.568 27.694C90.6133 28.7367 90.6473 29.6433 90.67 30.414L85.196 30.448ZM118.2 30.686C116.84 30.686 115.763 30.3913 114.97 29.802C114.177 29.2353 113.599 28.442 113.236 27.422C112.873 26.402 112.635 25.2347 112.522 23.92C112.431 22.6053 112.386 21.2227 112.386 19.772C112.386 18.276 112.443 16.7233 112.556 15.114C111.037 15.318 109.575 15.5787 108.17 15.896L107.116 10.558C108.997 10.0593 111.003 9.69667 113.134 9.47C113.293 8.314 113.463 7.10133 113.644 5.832C113.825 4.54 114.029 3.18 114.256 1.752L120.104 2.262C119.832 3.44067 119.594 4.61933 119.39 5.798C119.186 6.954 119.005 8.076 118.846 9.164C120.115 9.164 121.305 9.198 122.416 9.266C123.549 9.31133 124.592 9.402 125.544 9.538L124.864 14.876C124.071 14.7853 123.243 14.7287 122.382 14.706C121.543 14.6607 120.693 14.638 119.832 14.638C119.311 14.638 118.789 14.6493 118.268 14.672C118.132 16.3267 118.041 17.7433 117.996 18.922C117.973 20.1007 117.962 20.9393 117.962 21.438C117.962 22.6847 118.03 23.58 118.166 24.124C118.325 24.668 118.574 24.94 118.914 24.94C119.299 24.94 119.73 24.8153 120.206 24.566C120.682 24.294 121.147 23.9313 121.6 23.478C122.076 23.0247 122.473 22.5373 122.79 22.016L125.408 27.49C123.164 29.6207 120.761 30.686 118.2 30.686ZM138.053 30.788C136.24 30.788 134.653 30.4933 133.293 29.904C131.956 29.3147 130.845 28.51 129.961 27.49C129.077 26.4473 128.42 25.2573 127.989 23.92C127.559 22.5827 127.343 21.1773 127.343 19.704C127.343 18.208 127.604 16.8253 128.125 15.556C128.669 14.264 129.406 13.142 130.335 12.19C131.287 11.238 132.398 10.5013 133.667 9.98C134.937 9.436 136.319 9.164 137.815 9.164C139.379 9.164 140.83 9.436 142.167 9.98C143.505 10.524 144.672 11.2833 145.669 12.258C146.667 13.2327 147.437 14.3773 147.981 15.692C148.548 17.0067 148.831 18.4347 148.831 19.976C148.831 23.3987 147.891 26.062 146.009 27.966C144.128 29.8473 141.476 30.788 138.053 30.788ZM138.019 25.28C139.674 25.28 140.932 24.8153 141.793 23.886C142.677 22.9567 143.119 21.6193 143.119 19.874C143.119 18.31 142.643 17.052 141.691 16.1C140.739 15.148 139.493 14.672 137.951 14.672C137.022 14.672 136.172 14.9213 135.401 15.42C134.631 15.896 134.007 16.542 133.531 17.358C133.078 18.1513 132.851 19.0353 132.851 20.01C132.851 20.8713 133.021 21.71 133.361 22.526C133.724 23.342 134.291 24.0107 135.061 24.532C135.832 25.0307 136.818 25.28 138.019 25.28ZM12.764 64.598C10.4067 64.598 8.42337 64.1787 6.81404 63.34C5.20471 62.524 3.91271 61.436 2.93804 60.076C1.98604 58.716 1.29471 57.2313 0.864039 55.622C0.433373 54.0127 0.218039 52.4147 0.218039 50.828C0.218039 48.9467 0.524039 47.088 1.13604 45.252C1.74804 43.416 2.66604 41.75 3.89004 40.254C5.13671 38.758 6.67804 37.5567 8.51404 36.65C10.3727 35.7433 12.5374 35.29 15.008 35.29C17.0934 35.29 18.918 35.596 20.482 36.208C22.046 36.7973 23.3834 37.5227 24.494 38.384C25.6274 39.2227 26.534 40.016 27.214 40.764L22.964 45.354C22.3294 44.606 21.6494 43.9033 20.924 43.246C20.2214 42.5887 19.3827 42.056 18.408 41.648C17.4334 41.24 16.232 41.036 14.804 41.036C13.2627 41.036 11.9367 41.3193 10.826 41.886C9.71537 42.43 8.80871 43.1667 8.10604 44.096C7.40337 45.0253 6.88204 46.068 6.54204 47.224C6.22471 48.38 6.06604 49.57 6.06604 50.794C6.06604 52.2447 6.30404 53.582 6.78004 54.806C7.27871 56.03 8.01537 57.016 8.99004 57.764C9.98737 58.512 11.2227 58.886 12.696 58.886C14.5094 58.886 16.0054 58.4667 17.184 57.628C18.3627 56.7893 19.1787 55.588 19.632 54.024C18.6574 54.092 17.7167 54.1827 16.81 54.296C15.926 54.3867 15.1327 54.4887 14.43 54.602L13.852 49.094C15.1894 48.7993 16.7307 48.584 18.476 48.448C20.244 48.2893 21.9327 48.21 23.542 48.21C25.7634 48.21 27.4294 48.346 28.54 48.618L28.404 54.194C27.928 54.058 27.1687 53.956 26.126 53.888C26.126 54.3867 26.126 54.908 26.126 55.452C26.1487 55.996 26.16 56.5513 26.16 57.118C26.16 58.682 26.1374 60.2233 26.092 61.742C26.0467 63.2607 26.0014 64.4733 25.956 65.38L20.142 65.244C20.1647 64.9493 20.1987 64.496 20.244 63.884C20.312 63.272 20.38 62.5807 20.448 61.81C19.6774 62.626 18.6687 63.2947 17.422 63.816C16.198 64.3373 14.6454 64.598 12.764 64.598ZM40.2002 65.686C38.5002 65.686 36.9588 65.244 35.5762 64.36C34.1935 63.4987 33.0942 62.3313 32.2782 60.858C31.4848 59.362 31.0882 57.696 31.0882 55.86C31.0882 54.1373 31.4055 52.5847 32.0402 51.202C32.6748 49.7967 33.5362 48.5953 34.6242 47.598C35.7348 46.6007 36.9928 45.8413 38.3982 45.32C39.8035 44.776 41.2768 44.504 42.8182 44.504C44.1102 44.504 45.3795 44.6853 46.6262 45.048C46.7168 44.572 46.7962 44.096 46.8642 43.62L52.6782 44.606C52.5195 45.0367 52.3608 45.6827 52.2022 46.544C52.0435 47.4053 51.9075 48.3687 51.7942 49.434C51.7035 50.4993 51.6242 51.5647 51.5562 52.63C51.4882 53.6953 51.4542 54.6587 51.4542 55.52C51.4542 56.2227 51.4995 56.914 51.5902 57.594C51.7035 58.2513 51.9302 58.7953 52.2702 59.226C52.6102 59.634 53.1315 59.838 53.8342 59.838H54.3102L53.4602 65.754C51.9642 65.754 50.7288 65.4933 49.7542 64.972C48.7795 64.4733 47.9975 63.7933 47.4082 62.932C46.4335 64.02 45.3228 64.7453 44.0762 65.108C42.8295 65.4933 41.5375 65.686 40.2002 65.686ZM36.6642 56.54C36.7775 57.628 37.2195 58.5007 37.9902 59.158C38.7835 59.7927 39.7808 60.11 40.9822 60.11C42.1382 60.11 43.1015 59.804 43.8722 59.192C44.6428 58.5573 45.2775 57.696 45.7762 56.608C45.7535 56.2453 45.7422 55.8713 45.7422 55.486C45.7422 54.6927 45.7648 53.8767 45.8102 53.038C45.8555 52.1993 45.9122 51.372 45.9802 50.556C45.0282 50.1933 44.0308 50.012 42.9882 50.012C41.7642 50.012 40.6648 50.2613 39.6902 50.76C38.7382 51.236 37.9902 51.9047 37.4462 52.766C36.9022 53.6273 36.6302 54.6247 36.6302 55.758C36.6302 55.894 36.6302 56.03 36.6302 56.166C36.6302 56.302 36.6415 56.4267 36.6642 56.54ZM56.7077 65.448C56.6397 63.4533 56.583 61.606 56.5377 59.906C56.515 58.206 56.5037 56.5287 56.5037 54.874C56.5037 53.2193 56.515 51.5647 56.5377 49.91C56.583 48.2327 56.651 46.442 56.7417 44.538H62.4877C62.397 45.558 62.3177 46.5893 62.2497 47.632C63.0204 46.6573 63.9384 45.8527 65.0037 45.218C66.069 44.5607 67.327 44.232 68.7777 44.232C70.2057 44.232 71.373 44.47 72.2797 44.946C73.209 45.422 73.9344 46.0793 74.4557 46.918C74.9997 47.7567 75.385 48.72 75.6117 49.808C75.861 50.8733 76.0197 52.0293 76.0877 53.276C76.1557 54.5 76.1897 55.7353 76.1897 56.982C76.1897 58.342 76.167 59.6453 76.1217 60.892C76.0764 62.1387 76.031 63.1813 75.9857 64.02C75.9404 64.8587 75.9064 65.3573 75.8837 65.516H70.1717C70.217 64.5867 70.2624 63.6007 70.3077 62.558C70.353 61.4927 70.3984 60.45 70.4437 59.43C70.489 58.3873 70.5117 57.4467 70.5117 56.608C70.5117 51.78 69.7297 49.366 68.1657 49.366C66.8737 49.366 65.695 49.9327 64.6297 51.066C63.587 52.1767 62.7144 53.582 62.0117 55.282C62.0117 55.5087 62.0117 55.7353 62.0117 55.962C62.0117 57.05 62.0117 58.1833 62.0117 59.362C62.0344 60.518 62.057 61.6287 62.0797 62.694C62.125 63.7367 62.159 64.6433 62.1817 65.414L56.7077 65.448ZM79.5799 65.346C79.5799 63.9633 79.5799 62.1953 79.5799 60.042C79.6025 57.866 79.6252 55.452 79.6479 52.8C79.6932 50.148 79.7499 47.36 79.8179 44.436C79.9085 41.512 80.0105 38.588 80.1239 35.664L85.9039 35.63C85.8132 36.922 85.7225 38.4973 85.6319 40.356C85.5412 42.2147 85.4619 44.2093 85.3939 46.34C86.9579 44.8893 88.7486 44.164 90.7659 44.164C92.1486 44.164 93.2932 44.4133 94.1999 44.912C95.1292 45.4107 95.8772 46.068 96.4439 46.884C97.0106 47.6773 97.4412 48.55 97.7359 49.502C98.0306 50.454 98.2346 51.3947 98.3479 52.324C98.4612 53.2307 98.5179 54.0353 98.5179 54.738C98.5179 56.234 98.5066 57.7187 98.4839 59.192C98.4612 60.6653 98.4386 61.9573 98.4159 63.068C98.4159 64.1787 98.4159 64.9607 98.4159 65.414L92.4659 65.448C92.5566 64.564 92.6132 63.544 92.6359 62.388C92.6812 61.232 92.7039 60.042 92.7039 58.818C92.7265 57.5713 92.7379 56.3927 92.7379 55.282C92.7379 51.61 91.8765 49.774 90.1539 49.774C89.6326 49.774 89.0546 49.91 88.4199 50.182C87.7852 50.454 87.1732 50.8847 86.5839 51.474C86.0172 52.0633 85.5639 52.8453 85.2239 53.82C85.2012 55.316 85.1899 56.7667 85.1899 58.172C85.1899 59.464 85.2012 60.6767 85.2239 61.81C85.2692 62.9207 85.3032 64.0427 85.3259 65.176L79.5799 65.346ZM111.956 65.788C110.142 65.788 108.556 65.4933 107.196 64.904C105.858 64.3147 104.748 63.51 103.864 62.49C102.98 61.4473 102.322 60.2573 101.892 58.92C101.461 57.5827 101.246 56.1773 101.246 54.704C101.246 53.208 101.506 51.8253 102.028 50.556C102.572 49.264 103.308 48.142 104.238 47.19C105.19 46.238 106.3 45.5013 107.57 44.98C108.839 44.436 110.222 44.164 111.718 44.164C113.282 44.164 114.732 44.436 116.07 44.98C117.407 45.524 118.574 46.2833 119.572 47.258C120.569 48.2327 121.34 49.3773 121.884 50.692C122.45 52.0067 122.734 53.4347 122.734 54.976C122.734 58.3987 121.793 61.062 119.912 62.966C118.03 64.8473 115.378 65.788 111.956 65.788ZM111.922 60.28C113.576 60.28 114.834 59.8153 115.696 58.886C116.58 57.9567 117.022 56.6193 117.022 54.874C117.022 53.31 116.546 52.052 115.594 51.1C114.642 50.148 113.395 49.672 111.854 49.672C110.924 49.672 110.074 49.9213 109.304 50.42C108.533 50.896 107.91 51.542 107.434 52.358C106.98 53.1513 106.754 54.0353 106.754 55.01C106.754 55.8713 106.924 56.71 107.264 57.526C107.626 58.342 108.193 59.0107 108.964 59.532C109.734 60.0307 110.72 60.28 111.922 60.28ZM142.025 58.308L136.653 58.24C136.63 57.9227 136.607 57.526 136.585 57.05C136.585 56.5513 136.585 56.064 136.585 55.588C136.585 54.228 136.732 53.0947 137.027 52.188C137.321 51.2813 137.888 50.5333 138.727 49.944C139.588 49.332 140.869 48.8107 142.569 48.38C143.543 48.1307 144.348 47.9153 144.983 47.734C145.617 47.53 146.116 47.3033 146.479 47.054C146.841 46.8047 147.091 46.4647 147.227 46.034C147.385 45.5807 147.465 44.9687 147.465 44.198C147.465 42.566 146.819 41.58 145.527 41.24C144.892 41.0587 144.053 40.9227 143.011 40.832C141.968 40.7413 140.948 40.696 139.951 40.696C139.112 40.696 138.217 40.73 137.265 40.798C136.313 40.8433 135.417 40.9453 134.579 41.104C133.74 41.2627 133.06 41.512 132.539 41.852C132.017 42.192 131.757 42.6567 131.757 43.246C131.757 43.7673 131.927 44.334 132.267 44.946C132.629 45.5353 133.071 46.0567 133.593 46.51L128.663 49.332C127.892 48.5387 127.269 47.5867 126.793 46.476C126.317 45.3653 126.079 44.1867 126.079 42.94C126.079 42.124 126.249 41.2853 126.589 40.424C126.951 39.5627 127.541 38.7693 128.357 38.044C129.195 37.296 130.329 36.718 131.757 36.31C132.799 35.9927 134.035 35.7547 135.463 35.596C136.891 35.4147 138.387 35.324 139.951 35.324C141.288 35.324 142.637 35.4033 143.997 35.562C145.357 35.7207 146.626 36.004 147.805 36.412C149.777 37.092 151.114 38.0893 151.817 39.404C152.542 40.696 152.905 42.226 152.905 43.994C152.905 46.3287 152.417 48.2327 151.443 49.706C150.491 51.1793 148.859 52.1767 146.547 52.698C146.003 52.8113 145.425 52.9133 144.813 53.004C144.201 53.0947 143.657 53.242 143.181 53.446C142.705 53.65 142.387 54.0013 142.229 54.5C142.047 55.0667 141.957 55.8827 141.957 56.948C141.957 57.1747 141.957 57.4013 141.957 57.628C141.979 57.8547 142.002 58.0813 142.025 58.308ZM139.373 66.094C138.353 66.094 137.559 65.7767 136.993 65.142C136.449 64.5073 136.177 63.7593 136.177 62.898C136.177 61.9687 136.483 61.198 137.095 60.586C137.707 59.9513 138.477 59.634 139.407 59.634C140.381 59.634 141.152 59.9287 141.719 60.518C142.308 61.1073 142.603 61.8893 142.603 62.864C142.603 63.8387 142.308 64.6207 141.719 65.21C141.152 65.7993 140.37 66.094 139.373 66.094Z" fill="#01DB42"/>
</svg>
