<?xml version="1.0" standalone="no"?>
<svg xmlns:xlink="http://www.w3.org/1999/xlink" id="wave" style="transform:rotate(0deg); transition: 0.3s" viewBox="0 0 1440 130" version="1.1" xmlns="http://www.w3.org/2000/svg"><defs><linearGradient id="sw-gradient-0" x1="0" x2="0" y1="1" y2="0"><stop stop-color="rgba(1, 219, 66, 1)" offset="0%"/><stop stop-color="rgba(1, 219, 66, 1)" offset="100%"/></linearGradient></defs><path style="transform:translate(0, 0px); opacity:1" fill="url(#sw-gradient-0)" d="M0,65L80,67.2C160,69,320,74,480,80.2C640,87,800,95,960,88.8C1120,82,1280,61,1440,43.3C1600,26,1760,13,1920,6.5C2080,0,2240,0,2400,6.5C2560,13,2720,26,2880,36.8C3040,48,3200,56,3360,67.2C3520,78,3680,91,3840,95.3C4000,100,4160,95,4320,78C4480,61,4640,30,4800,17.3C4960,4,5120,9,5280,23.8C5440,39,5600,65,5760,65C5920,65,6080,39,6240,43.3C6400,48,6560,82,6720,99.7C6880,117,7040,117,7200,108.3C7360,100,7520,82,7680,62.8C7840,43,8000,22,8160,23.8C8320,26,8480,52,8640,60.7C8800,69,8960,61,9120,62.8C9280,65,9440,78,9600,80.2C9760,82,9920,74,10080,65C10240,56,10400,48,10560,39C10720,30,10880,22,11040,34.7C11200,48,11360,82,11440,99.7L11520,117L11520,130L11440,130C11360,130,11200,130,11040,130C10880,130,10720,130,10560,130C10400,130,10240,130,10080,130C9920,130,9760,130,9600,130C9440,130,9280,130,9120,130C8960,130,8800,130,8640,130C8480,130,8320,130,8160,130C8000,130,7840,130,7680,130C7520,130,7360,130,7200,130C7040,130,6880,130,6720,130C6560,130,6400,130,6240,130C6080,130,5920,130,5760,130C5600,130,5440,130,5280,130C5120,130,4960,130,4800,130C4640,130,4480,130,4320,130C4160,130,4000,130,3840,130C3680,130,3520,130,3360,130C3200,130,3040,130,2880,130C2720,130,2560,130,2400,130C2240,130,2080,130,1920,130C1760,130,1600,130,1440,130C1280,130,1120,130,960,130C800,130,640,130,480,130C320,130,160,130,80,130L0,130Z"/></svg>